Coordinates
version=1
nRows=26
nColumns=24
inDegrees=yes

Units are S.I. units (second, meters, Newtons, ...)
Angles are in degrees.

endheader
time	pelvis_tilt	pelvis_list	pelvis_rotation	pelvis_tx	pelvis_ty	pelvis_tz	hip_flexion_r	hip_adduction_r	hip_rotation_r	knee_angle_r	ankle_angle_r	subtalar_angle_r	mtp_angle_r	hip_flexion_l	hip_adduction_l	hip_rotation_l	knee_angle_l	ankle_angle_l	subtalar_angle_l	mtp_angle_l	lumbar_extension	lumbar_bending	lumbar_rotation
      0.77083333	      0.07694001	      1.67442049	      4.94788636	     -0.33862313	      1.08503614	      0.30283489	      6.35150796	      0.90448017	     -2.05846039	    -14.57341461	      8.14205259	     -6.61146518	      6.37500780	     14.05487943	     -1.85353011	     -2.60973648	    -66.72556194	      8.95065505	      1.87411556	      4.25936391	    -11.12145686	      4.09379416	     -1.04903529
      0.77500000	      0.10325088	      1.82541437	      4.84695368	     -0.33334786	      1.08577307	      0.30330340	      5.85830939	      0.79183976	     -2.01630320	    -14.25677732	      8.20237654	     -6.52034205	      6.35638580	     14.49060869	     -1.69387291	     -2.79238094	    -66.28629676	      9.27375389	      2.09524417	      4.27713080	    -11.11857218	      3.85392456	     -0.95382428
      0.77916667	      0.15179112	      1.94431049	      4.74597025	     -0.32808502	      1.08647776	      0.30376929	      5.33345716	      0.71788581	     -1.95670457	    -13.91713906	      8.30957023	     -6.42123198	      6.31852850	     14.90295523	     -1.58165711	     -2.98317732	    -65.82359498	      9.57982054	      2.38467125	      4.30762451	    -11.14692044	      3.64850368	     -0.73634657
      0.78333333	      0.17449701	      2.07982463	      4.63764127	     -0.32282795	      1.08710489	      0.30423646	      4.84694857	      0.62003199	     -1.90582899	    -13.59929699	      8.37246632	     -6.34249325	      6.29968246	     15.32986051	     -1.44815174	     -3.18567646	    -65.31375875	      9.86926233	      2.62534667	      4.32856068	    -11.13732754	      3.41407655	     -0.65324225
      0.78750000	      0.20835022	      2.20491040	      4.52509121	     -0.31758663	      1.08771496	      0.30470835	      4.34343382	      0.53543269	     -1.84077894	    -13.26288274	      8.44563409	     -6.26081352	      6.28285618	     15.73715977	     -1.33047428	     -3.39177358	    -64.76712773	     10.14487416	      2.89964713	      4.35029692	    -11.14996347	      3.19161847	     -0.54091406
      0.79166667	      0.27087976	      2.31678090	      4.40734633	     -0.31235152	      1.08832704	      0.30518069	      3.80558703	      0.46728001	     -1.76353635	    -12.91754704	      8.54320170	     -6.19803362	      6.24507238	     16.10357946	     -1.23679734	     -3.60788198	    -64.18210878	     10.40443526	      3.21263410	      4.38995482	    -11.19357757	      2.99728403	     -0.29460659
      0.79583333	      0.30350680	      2.45075721	      4.28110128	     -0.30712445	      1.08886285	      0.30566152	      3.30904529	      0.36954532	     -1.68732556	    -12.59058208	      8.62307796	     -6.13061771	      6.21049576	     16.48762589	     -1.11399003	     -3.83267028	    -63.54933427	     10.63729979	      3.48440736	      4.42828140	    -11.20434980	      2.76435309	     -0.13974480
      0.80000000	      0.33806413	      2.57298476	      4.15770249	     -0.30190342	      1.08935069	      0.30611793	      2.81030698	      0.28177595	     -1.61522388	    -12.26045751	      8.70508615	     -6.06358391	      6.17963710	     16.86242028	     -1.00413212	     -4.05302631	    -62.88577211	     10.85618889	      3.76673331	      4.46526559	    -11.21485618	      2.54960549	      0.00378330
      0.80416667	      0.35823464	      2.69495672	      4.03021899	     -0.29668752	      1.08976347	      0.30656643	      2.33542338	      0.19032719	     -1.54880987	    -11.94708360	      8.78276961	     -5.99799279	      6.15473229	     17.24252405	     -0.89366557	     -4.27691313	    -62.18548846	     11.05672100	      4.03956605	      4.49728499	    -11.20351564	      2.34330452	      0.12971388
      0.80833333	      0.40129831	      2.80169231	      3.90743600	     -0.29149502	      1.09017051	      0.30699780	      1.82690074	      0.11638550	     -1.46639440	    -11.60867658	      8.86488145	     -5.93417308	      6.11896613	     17.59310999	     -0.80108519	     -4.49085553	    -61.45842888	     11.24682344	      4.31563760	      4.54205902	    -11.23719612	      2.14034715	      0.31852253
      0.81250000	      0.40481953	      2.92764132	      3.78577922	     -0.28629728	      1.09048072	      0.30741846	      1.37109215	      0.01407831	     -1.40520949	    -11.29448881	      8.93751426	     -5.85985445	      6.10574809	     17.97223635	     -0.67935504	     -4.70182483	    -60.68762658	     11.39619308	      4.54160825	      4.56220233	    -11.21463742	      1.91295317	      0.37934441
      0.81666667	      0.47262277	      3.02939903	      3.65499517	     -0.28114034	      1.09083553	      0.30783985	      0.84572547	     -0.05753122	     -1.32618081	    -10.97178356	      9.04585249	     -5.79859614	      6.07267733	     18.27352070	     -0.59612651	     -4.91994020	    -59.88888758	     11.55442398	      4.82472913	      4.60547544	    -11.27595156	      1.73636869	      0.59887670
      0.82083333	      0.47484137	      3.14879116	      3.52985207	     -0.27595535	      1.09105927	      0.30823192	      0.40068642	     -0.15843994	     -1.26997690	    -10.67445538	      9.12573629	     -5.73263000	      6.05621482	     18.62999851	     -0.47904661	     -5.12530944	    -59.04522273	     11.66982153	      5.03495699	      4.62830479	    -11.24591632	      1.53314280	      0.67876829
      0.82500000	      0.53015915	      3.23965406	      3.40914537	     -0.27082064	      1.09129591	      0.30860826	     -0.10958848	     -0.22443654	     -1.19646070	    -10.35199641	      9.23526305	     -5.66229201	      6.02386546	     18.92967506	     -0.39871545	     -5.32135613	    -58.19006047	     11.78734828	      5.26264885	      4.66887104	    -11.30213023	      1.35554771	      0.87197788
      0.82916667	      0.55118820	      3.34273442	      3.28920341	     -0.26567177	      1.09144896	      0.30896953	     -0.57402314	     -0.31007128	     -1.13844126	    -10.05084491	      9.33811175	     -5.59131392	      5.99417141	     19.24913774	     -0.29738105	     -5.51068145	    -57.29039073	     11.87308441	      5.43850274	      4.70393465	    -11.30504370	      1.16840486	      0.99897045
      0.83333333	      0.56013854	      3.44949341	      3.17150494	     -0.26052667	      1.09153865	      0.30930825	     -1.01764485	     -0.40422814	     -1.09335590	     -9.76712570	      9.42600751	     -5.51795844	      5.97797919	     19.56865701	     -0.18512932	     -5.68798820	    -56.35699216	     11.94289885	      5.58931270	      4.72337965	    -11.29226558	      0.98633279	      1.06854314
      0.83750000	      0.61736566	      3.53217650	      3.05958794	     -0.25541842	      1.09165654	      0.30962507	     -1.52109330	     -0.46983955	     -1.04021715	     -9.46104108	      9.54818393	     -5.43563767	      5.94770076	     19.83167894	     -0.10078112	     -5.85368310	    -55.40406343	     11.99803280	      5.71205109	      4.75540781	    -11.35531571	      0.82506930	      1.22830788
      0.84166667	      0.60546900	      3.61973766	      2.94913727	     -0.25028498	      1.09160988	      0.30992866	     -1.93541171	     -0.54850252	     -0.99846438	     -9.18843100	      9.64402310	     -5.36044125	      5.93033538	     20.15567956	     -0.00256755	     -6.00859733	    -54.41966885	     12.04143182	      5.80709418	      4.77258342	    -11.32093088	      0.66631310	      1.29641131
      0.84583333	      0.63701997	      3.69816101	      2.84029557	     -0.24518617	      1.09159911	      0.31021539	     -2.39734323	     -0.61668267	     -0.96023754	     -8.90987788	      9.75837607	     -5.27790362	      5.90934346	     20.42166282	      0.08645532	     -6.15406215	    -53.40433210	     12.06370474	      5.86371187	      4.79114716	    -11.34805078	      0.51749596	      1.39829804
      0.85000000	      0.67048693	      3.75925832	      2.74496575	     -0.24010144	      1.09152754	      0.31046431	     -2.86497899	     -0.66698433	     -0.93044671	     -8.62291914	      9.88603739	     -5.18095083	      5.87665987	     20.68212752	      0.16470415	     -6.27350704	    -52.37612751	     12.07395936	      5.86989399	      4.81691881	    -11.38791620	      0.38821939	      1.52736063
      0.85416667	      0.65520078	      3.81968157	      2.64689029	     -0.23499567	      1.09133081	      0.31071043	     -3.26700690	     -0.72139933	     -0.89928623	     -8.36470212	      9.99268757	     -5.10255317	      5.85839807	     20.98041124	      0.24392365	     -6.39363307	    -51.31819689	     12.08225555	      5.87426985	      4.82921308	    -11.35491518	      0.26513350	      1.57836061
      0.85833333	      0.65888998	      3.87603870	      2.55217586	     -0.22990906	      1.09112969	      0.31093389	     -3.68964322	     -0.77287685	     -0.87463428	     -8.10550171	     10.11567127	     -5.01423616	      5.83854455	     21.24492534	      0.32455728	     -6.49675348	    -50.22922546	     12.06795059	      5.82051947	      4.83984766	    -11.35609972	      0.14658593	      1.64720420
      0.86250000	      0.68797251	      3.91538791	      2.47034324	     -0.22485117	      1.09091490	      0.31112007	     -4.14200534	     -0.80540152	     -0.86613506	     -7.83841266	     10.25629518	     -4.90386191	      5.80548602	     21.47818151	      0.39445489	     -6.57369984	    -49.12680301	     12.03921213	      5.70914507	      4.85621777	    -11.39695216	      0.05440595	      1.74576683
      0.86666667	      0.66677513	      3.95243910	      2.38188577	     -0.21976548	      1.09057181	      0.31131220	     -4.52851141	     -0.83987815	     -0.84611270	     -7.59777205	     10.37654528	     -4.81283779	      5.78233570	     21.74955222	      0.46023233	     -6.65563782	    -47.99723580	     12.01806837	      5.61553038	      4.86481927	    -11.36525745	     -0.04076080	      1.78964320
      0.87083333	      0.68499641	      3.98225884	      2.30809220	     -0.21471570	      1.09025144	      0.31146564	     -4.96360422	     -0.86497596	     -0.84566931	     -7.34327025	     10.52081469	     -4.70027010	      5.74789592	     21.97065363	      0.52851942	     -6.70672162	    -46.84655240	     11.97201648	      5.43987313	      4.87576863	    -11.39918464	     -0.11666950	      1.85429772
      0.87500000	      0.68164492	      4.00159318	      2.23346409	     -0.20965772	      1.08985515	      0.31160817	     -5.36867546	     -0.88120301	     -0.83964291	     -7.10399125	     10.65639674	     -4.59251415	      5.71197432	     22.20241511	      0.58734970	     -6.75064800	    -45.67354702	     11.93189328	      5.26978969	      4.88496375	    -11.40209247	     -0.18387481	      1.89861604
